<svg width="40" height="40" viewBox="0 0 40 40" fill="none" xmlns="http://www.w3.org/2000/svg">
<rect x="0.5" y="0.5" width="39" height="39" rx="19.5" stroke="white"/>
<g clip-path="url(#clip0)">
<path d="M33 11.7484C32.0703 12.1562 31.0797 12.4266 30.0469 12.5578C31.1094 11.9234 31.9203 10.9266 32.3016 9.725C31.3109 10.3156 30.2172 10.7328 29.0516 10.9656C28.1109 9.96406 26.7703 9.34375 25.3078 9.34375C22.4703 9.34375 20.1859 11.6469 20.1859 14.4703C20.1859 14.8766 20.2203 15.2672 20.3047 15.6391C16.0437 15.4312 12.2734 13.3891 9.74062 10.2781C9.29844 11.0453 9.03906 11.9234 9.03906 12.8688C9.03906 14.6438 9.95312 16.2172 11.3156 17.1281C10.4922 17.1125 9.68437 16.8734 9 16.4969C9 16.5125 9 16.5328 9 16.5531C9 19.0437 10.7766 21.1125 13.1062 21.5891C12.6891 21.7031 12.2344 21.7578 11.7625 21.7578C11.4344 21.7578 11.1031 21.7391 10.7922 21.6703C11.4562 23.7 13.3406 25.1922 15.5813 25.2406C13.8375 26.6047 11.6234 27.4266 9.22656 27.4266C8.80625 27.4266 8.40312 27.4078 8 27.3563C10.2703 28.8203 12.9609 29.6562 15.8625 29.6562C25.2937 29.6562 30.45 21.8438 30.45 15.0719C30.45 14.8453 30.4422 14.6266 30.4312 14.4094C31.4484 13.6875 32.3031 12.7859 33 11.7484Z" fill="white"/>
</g>
<defs>
<clipPath id="clip0">
<rect width="25" height="25" fill="white" transform="translate(8 7)"/>
</clipPath>
</defs>
</svg>
