<svg width="40" height="40" viewBox="0 0 40 40" fill="none" xmlns="http://www.w3.org/2000/svg">
<rect x="0.5" y="0.5" width="39" height="39" rx="19.5" stroke="white"/>
<path d="M32.5704 13.4389C32.2679 12.3144 31.3813 11.4279 30.2569 11.1251C28.2027 10.563 19.986 10.563 19.986 10.563C19.986 10.563 11.7696 10.563 9.71544 11.1038C8.61266 11.4063 7.70439 12.3145 7.4019 13.4389C6.86133 15.4929 6.86133 19.7526 6.86133 19.7526C6.86133 19.7526 6.86133 24.0338 7.4019 26.0663C7.70471 27.1907 8.59103 28.0772 9.7156 28.38C11.7912 28.9422 19.9863 28.9422 19.9863 28.9422C19.9863 28.9422 28.2027 28.9422 30.2569 28.4015C31.3815 28.0988 32.2679 27.2124 32.5708 26.0879C33.1112 24.0338 33.1112 19.7743 33.1112 19.7743C33.1112 19.7743 33.1328 15.4929 32.5704 13.4389ZM17.37 23.6879V15.8174L24.2026 19.7526L17.37 23.6879Z" fill="white"/>
</svg>
