<svg width="512" height="512" viewBox="0 0 512 512" fill="none" xmlns="http://www.w3.org/2000/svg">
<path d="M206.453 115.399C190.426 114.736 174.201 113.735 158.23 112.427C154.044 112.087 150.374 115.199 150.031 119.385C149.688 123.57 152.803 127.241 156.989 127.584C162.719 128.053 168.485 128.469 174.259 128.858V187.49C174.26 191.689 177.665 195.094 181.864 195.094C186.063 195.094 189.468 191.689 189.468 187.49V129.791C194.931 130.091 200.39 130.369 205.826 130.594C205.932 130.598 206.039 130.6 206.145 130.6C210.199 130.6 213.567 127.399 213.737 123.31C213.91 119.116 210.649 115.573 206.453 115.399Z" fill="#004B93"/>
<path d="M425.326 112.101C424.762 107.939 420.929 105.019 416.77 105.586C400.865 107.74 384.697 109.599 368.715 111.108C364.535 111.503 361.466 115.213 361.86 119.393C362.232 123.331 365.544 126.282 369.421 126.282C369.66 126.282 369.903 126.271 370.146 126.248C375.425 125.749 380.725 125.2 386.027 124.627V181.888C386.026 186.088 389.43 189.493 393.63 189.493C397.83 189.493 401.234 186.088 401.234 181.889V122.889C407.111 122.18 412.981 121.445 418.81 120.655C422.972 120.092 425.889 116.262 425.326 112.101Z" fill="#004B93"/>
<path d="M344.334 140.402V138.151C344.334 131.594 341.766 125.548 337.103 121.125C332.392 116.656 326.147 114.378 319.477 114.742C313.16 115.077 306.769 115.364 300.485 115.599C296.398 115.75 293.163 119.108 293.163 123.198V159.108V188.942C293.163 193.141 296.567 196.546 300.767 196.546C304.967 196.546 308.371 193.141 308.371 188.942V166.443C313.941 166.492 319.074 168.516 322.929 172.214C326.924 176.045 329.125 181.321 329.125 187.067C329.125 191.266 332.529 194.671 336.729 194.671C340.929 194.671 344.333 191.266 344.333 187.067C344.333 177.138 340.469 167.965 333.455 161.238C333.444 161.227 333.431 161.217 333.419 161.206C339.985 156.537 344.334 148.857 344.334 140.402ZM329.126 140.403C329.126 145.682 324.709 150.375 319.478 150.651H319.477C315.801 150.846 312.087 151.026 308.371 151.188V130.501C312.34 130.33 316.326 130.138 320.282 129.928C322.712 129.794 324.984 130.59 326.638 132.16C328.242 133.682 329.126 135.81 329.126 138.152V140.403Z" fill="#004B93"/>
<path d="M249.397 116.406C242.61 116.398 236.292 118.954 231.541 123.679C226.842 128.353 224.254 134.59 224.254 141.242V189.529C224.254 193.728 227.659 197.133 231.858 197.133C236.057 197.133 239.462 193.728 239.462 189.529V166.825C244.981 166.9 250.513 166.952 256.038 166.952C257.113 166.952 258.179 166.941 259.253 166.938V189.724C259.253 193.923 262.657 197.328 266.857 197.328C271.057 197.328 274.461 193.923 274.461 189.724V141.437C274.46 127.713 263.218 116.485 249.397 116.406ZM259.253 151.737C252.666 151.754 246.052 151.718 239.462 151.627V141.243C239.462 138.668 240.458 136.26 242.266 134.461C244.126 132.611 246.613 131.638 249.313 131.614C254.793 131.645 259.252 136.051 259.252 141.436V151.737H259.253Z" fill="#004B93"/>
<path d="M113.527 140.794L111.503 140.551C106.342 139.924 101.815 134.788 101.815 129.559C101.814 127.39 102.559 125.585 103.969 124.336C105.411 123.059 107.435 122.503 109.668 122.775C115.809 123.521 122.049 124.231 128.219 124.885C132.398 125.326 136.139 122.301 136.581 118.124C137.023 113.948 133.996 110.204 129.82 109.762C123.729 109.117 117.566 108.417 111.502 107.679C104.883 106.875 98.629 108.751 93.884 112.955C89.191 117.114 86.607 123.01 86.607 129.56C86.607 142.621 96.739 154.08 109.672 155.649L111.715 155.895C116.974 156.527 121.417 161.444 121.417 166.632C121.417 168.838 120.609 170.771 119.141 172.072C117.688 173.361 115.695 173.928 113.527 173.667C107.454 172.939 101.298 172.153 95.232 171.332C91.067 170.769 87.24 173.686 86.677 177.847C86.113 182.009 89.03 185.839 93.192 186.402C99.335 187.233 105.568 188.029 111.716 188.766C112.687 188.883 113.65 188.94 114.603 188.94C120.074 188.94 125.187 187.038 129.234 183.448C133.931 179.281 136.626 173.151 136.626 166.631C136.626 153.699 126.48 142.35 113.527 140.794Z" fill="#004B93"/>
<path d="M509.379 52.256C507.714 50.811 505.504 50.158 503.324 50.471C362.914 70.454 220.173 73.339 79.069 59.042C74.893 58.615 71.161 61.663 70.737 65.841C70.313 70.019 73.358 73.749 77.536 74.173C216.962 88.3 357.959 85.797 496.792 66.74V212.972C336.969 235.108 175.032 235.108 15.208 212.972V66.74C26.913 68.346 38.712 69.845 50.394 71.212C54.575 71.706 58.343 68.714 58.829 64.543C59.317 60.372 56.331 56.595 52.16 56.108C37.711 54.419 23.08 52.523 8.675 50.472C6.489 50.161 4.284 50.813 2.62 52.257C0.956 53.7 0 55.796 0 57.999V219.583C0 223.369 2.785 226.578 6.532 227.111C12.119 227.906 17.709 228.669 23.301 229.41V454.002C23.301 458.201 26.706 461.606 30.905 461.606H61.341C65.54 461.606 68.945 458.201 68.945 454.002V234.866C131.133 241.475 193.566 244.781 255.999 244.781C318.432 244.781 380.863 241.476 443.049 234.866V302.457C443.049 306.656 446.453 310.061 450.653 310.061C454.853 310.061 458.257 306.656 458.257 302.457V233.182C463.335 232.598 468.411 231.991 473.486 231.362V446.398H458.257V327.804C458.257 323.605 454.853 320.2 450.653 320.2C446.453 320.2 443.049 323.605 443.049 327.804V454.002C443.049 458.201 446.453 461.606 450.653 461.606H481.09C485.29 461.606 488.694 458.201 488.694 454.002V229.412C494.287 228.671 499.878 227.907 505.466 227.112C509.213 226.579 511.998 223.37 511.998 219.584V57.999C512 55.796 511.044 53.7 509.379 52.256ZM53.738 446.398H38.51V231.361C43.584 231.99 48.66 232.597 53.738 233.181V446.398Z" fill="#004B93"/>
</svg>
