<svg width="496" height="496" viewBox="0 0 496 496" fill="none" xmlns="http://www.w3.org/2000/svg">
<path d="M200 104C147.064 104 104 147.064 104 200C104 252.936 147.064 296 200 296C252.936 296 296 252.936 296 200C296 147.064 252.936 104 200 104ZM200 280C155.888 280 120 244.112 120 200C120 155.888 155.888 120 200 120C244.112 120 280 155.888 280 200C280 244.112 244.112 280 200 280Z" fill="#021F54"/>
<path d="M487.032 443.712L400 356.688V40C400 35.584 396.424 32 392 32H368V8C368 3.584 364.424 0 360 0H88C85.872 0 83.84 0.84 82.344 2.344L2.344 82.344C0.84 83.84 0 85.88 0 88V456C0 460.416 3.576 464 8 464H32V488C32 492.416 35.576 496 40 496H392C396.424 496 400 492.416 400 488V443.304L443.72 487.024C449.504 492.816 457.184 496 465.376 496C482.256 496 496 482.264 496 465.368C496 457.192 492.816 449.504 487.032 443.712V443.712ZM384 48V340.688L368 324.688V48H384ZM80 27.312V80H27.312L80 27.312ZM16 96H88C92.424 96 96 92.416 96 88V16H352V308.688L338.76 295.448C341.952 289.408 341.08 281.768 336 276.688L315.048 255.736C323.256 238.856 328 219.992 328 200C328 129.424 270.576 72 200 72C129.424 72 72 129.424 72 200C72 270.576 129.424 328 200 328C219.992 328 238.856 323.256 255.736 315.048L276.688 336C279.808 339.12 283.904 340.68 288 340.68C290.568 340.68 293.12 339.992 295.448 338.76L352 395.312V448H16V96ZM288 324.688L270.216 306.904C284.8 297.296 297.296 284.8 306.904 270.216L324.688 288L288 324.688ZM200 312C138.24 312 88 261.76 88 200C88 138.24 138.24 88 200 88C261.76 88 312 138.24 312 200C312 261.76 261.76 312 200 312ZM384 480H48V464H360C364.424 464 368 460.416 368 456V411.312L384 427.312V480ZM465.376 480C461.528 480 457.76 478.44 455.032 475.712L307.312 328L328 307.312L475.72 455.024C478.48 457.792 480 461.464 480 465.368C480 473.44 473.44 480 465.376 480Z" fill="#021F54"/>
<path d="M128 48H320V64H128V48Z" fill="#021F54"/>
<path d="M48 400H320V416H48V400Z" fill="#021F54"/>
<path d="M48 368H320V384H48V368Z" fill="#021F54"/>
<path d="M48 336H256V352H48V336Z" fill="#021F54"/>
<path d="M222.344 190.84C228.288 185.024 232 176.952 232 168C232 150.352 217.648 136 200 136C182.352 136 168 150.352 168 168C168 176.952 171.712 185.024 177.656 190.84C167.008 198.04 160 210.216 160 224V248C160 252.416 163.576 256 168 256H232C236.424 256 240 252.416 240 248V224C240 210.216 232.992 198.04 222.344 190.84ZM184 168C184 159.176 191.176 152 200 152C208.824 152 216 159.176 216 168C216 176.824 208.824 184 200 184C191.176 184 184 176.824 184 168ZM224 240H176V224C176 210.768 186.768 200 200 200C213.232 200 224 210.768 224 224V240Z" fill="#021F54"/>
</svg>
