<svg width="512" height="444" viewBox="0 0 512 444" fill="none" xmlns="http://www.w3.org/2000/svg">
<path d="M481 60.028H458.5V23.496C458.494 17.398 456.068 11.5515 451.756 7.23956C447.444 2.9276 441.598 0.502355 435.5 0.496002H419.364C413.266 0.502355 407.42 2.9276 403.108 7.23956C398.796 11.5515 396.37 17.398 396.364 23.496V60.028H344.212V23.496C344.206 17.398 341.78 11.5515 337.468 7.23956C333.156 2.9276 327.31 0.502355 321.212 0.496002H305.076C298.978 0.503412 293.132 2.929 288.821 7.24073C284.509 11.5525 282.083 17.3983 282.076 23.496V60.028H229.924V23.496C229.917 17.3983 227.491 11.5525 223.179 7.24073C218.868 2.929 213.022 0.503412 206.924 0.496002H190.8C184.702 0.503412 178.856 2.929 174.545 7.24073C170.233 11.5525 167.807 17.3983 167.8 23.496V60.028H115.636V23.496C115.629 17.3983 113.203 11.5525 108.891 7.24073C104.58 2.929 98.7337 0.503412 92.636 0.496002H76.5C70.4023 0.503412 64.5565 2.929 60.2447 7.24073C55.933 11.5525 53.5074 17.3983 53.5 23.496V60.028H31C22.7812 60.0375 14.9018 63.3066 9.09021 69.1182C3.27865 74.9298 0.00952781 82.8092 0 91.028L0 416.504C0.0084688 423.662 2.85582 430.525 7.91747 435.587C12.9791 440.648 19.8418 443.496 27 443.504H485C492.158 443.496 499.021 440.648 504.083 435.587C509.144 430.525 511.992 423.662 512 416.504V91.028C511.99 82.8092 508.721 74.9298 502.91 69.1182C497.098 63.3066 489.219 60.0375 481 60.028V60.028ZM410.364 23.496C410.367 21.11 411.316 18.8227 413.004 17.1355C414.691 15.4484 416.978 14.4992 419.364 14.496H435.5C437.886 14.4992 440.173 15.4484 441.86 17.1355C443.548 18.8227 444.497 21.11 444.5 23.496V60.028H410.364V23.496ZM296.076 23.496C296.079 21.11 297.028 18.8227 298.716 17.1355C300.403 15.4484 302.69 14.4992 305.076 14.496H321.2C323.586 14.4992 325.873 15.4484 327.56 17.1355C329.248 18.8227 330.197 21.11 330.2 23.496V60.028H296.076V23.496ZM181.788 23.496C181.791 21.11 182.74 18.8227 184.428 17.1355C186.115 15.4484 188.402 14.4992 190.788 14.496H206.924C209.31 14.4992 211.597 15.4484 213.284 17.1355C214.972 18.8227 215.921 21.11 215.924 23.496V60.028H181.788V23.496ZM67.5 23.496C67.5032 21.11 68.4524 18.8227 70.1395 17.1355C71.8267 15.4484 74.114 14.4992 76.5 14.496H92.636C95.022 14.4992 97.3093 15.4484 98.9965 17.1355C100.684 18.8227 101.633 21.11 101.636 23.496V60.028H67.5V23.496ZM14 91.028C14.0053 86.5209 15.7981 82.2 18.985 79.013C22.172 75.8261 26.4929 74.0333 31 74.028H481C485.507 74.0322 489.829 75.8247 493.016 79.0119C496.203 82.1991 497.996 86.5206 498 91.028V136.54H14V91.028ZM498 416.504C497.996 419.951 496.625 423.255 494.188 425.692C491.751 428.129 488.447 429.5 485 429.504H27C23.5535 429.5 20.2493 428.129 17.8123 425.692C15.3752 423.255 14.0042 419.951 14 416.504V150.54H498V416.504Z" fill="#004B93"/>
<path d="M55 238.252H97.944C101.921 238.247 105.733 236.665 108.545 233.853C111.357 231.041 112.939 227.229 112.944 223.252V191.54C112.94 187.563 111.358 183.75 108.546 180.938C105.734 178.126 101.921 176.544 97.944 176.54H55C51.0231 176.544 47.2102 178.126 44.3981 180.938C41.5859 183.75 40.0042 187.563 40 191.54V223.252C40.0053 227.229 41.5873 231.041 44.3992 233.853C47.2111 236.665 51.0234 238.247 55 238.252V238.252ZM54 191.54C54 191.275 54.1054 191.02 54.2929 190.833C54.4804 190.645 54.7348 190.54 55 190.54H97.944C98.2092 190.54 98.4636 190.645 98.6511 190.833C98.8386 191.02 98.944 191.275 98.944 191.54V223.252C98.9429 223.517 98.8372 223.771 98.6499 223.958C98.4626 224.145 98.2089 224.251 97.944 224.252H55C54.7351 224.251 54.4814 224.145 54.2941 223.958C54.1067 223.771 54.0011 223.517 54 223.252V191.54Z" fill="#004B93"/>
<path d="M174.684 238.252H217.628C221.605 238.247 225.417 236.665 228.229 233.853C231.041 231.041 232.623 227.229 232.628 223.252V191.54C232.624 187.563 231.042 183.75 228.23 180.938C225.418 178.126 221.605 176.544 217.628 176.54H174.684C170.707 176.544 166.894 178.126 164.082 180.938C161.27 183.75 159.688 187.563 159.684 191.54V223.252C159.689 227.229 161.271 231.041 164.083 233.853C166.895 236.665 170.707 238.247 174.684 238.252ZM173.684 191.54C173.685 191.275 173.791 191.021 173.978 190.834C174.165 190.647 174.419 190.541 174.684 190.54H217.628C217.893 190.54 218.148 190.645 218.335 190.833C218.523 191.02 218.628 191.275 218.628 191.54V223.252C218.627 223.517 218.521 223.771 218.334 223.958C218.147 224.145 217.893 224.251 217.628 224.252H174.684C174.419 224.251 174.165 224.145 173.978 223.958C173.791 223.771 173.685 223.517 173.684 223.252V191.54Z" fill="#004B93"/>
<path d="M294.372 238.252H337.316C341.293 238.247 345.105 236.665 347.917 233.853C350.729 231.041 352.311 227.229 352.316 223.252V191.54C352.311 187.563 350.729 183.751 347.917 180.939C345.105 178.127 341.293 176.545 337.316 176.54H294.372C290.395 176.544 286.582 178.126 283.77 180.938C280.958 183.75 279.376 187.563 279.372 191.54V223.252C279.377 227.229 280.959 231.041 283.771 233.853C286.583 236.665 290.395 238.247 294.372 238.252ZM293.372 191.54C293.372 191.275 293.477 191.02 293.665 190.833C293.852 190.645 294.107 190.54 294.372 190.54H337.316C337.581 190.54 337.836 190.645 338.023 190.833C338.211 191.02 338.316 191.275 338.316 191.54V223.252C338.315 223.517 338.209 223.771 338.022 223.958C337.835 224.145 337.581 224.251 337.316 224.252H294.372C294.107 224.251 293.853 224.145 293.666 223.958C293.479 223.771 293.373 223.517 293.372 223.252V191.54Z" fill="#004B93"/>
<path d="M414.056 238.252H457C460.977 238.247 464.789 236.665 467.601 233.853C470.413 231.041 471.995 227.229 472 223.252V191.54C471.995 187.563 470.413 183.751 467.601 180.939C464.789 178.127 460.977 176.545 457 176.54H414.056C410.079 176.544 406.266 178.126 403.454 180.938C400.642 183.75 399.06 187.563 399.056 191.54V223.252C399.061 227.229 400.643 231.041 403.455 233.853C406.267 236.665 410.079 238.247 414.056 238.252ZM413.056 191.54C413.056 191.275 413.161 191.02 413.349 190.833C413.536 190.645 413.791 190.54 414.056 190.54H457C457.265 190.54 457.52 190.645 457.707 190.833C457.895 191.02 458 191.275 458 191.54V223.252C457.999 223.517 457.893 223.771 457.706 223.958C457.519 224.145 457.265 224.251 457 224.252H414.056C413.791 224.251 413.537 224.145 413.35 223.958C413.163 223.771 413.057 223.517 413.056 223.252V191.54Z" fill="#004B93"/>
<path d="M55 320.876H97.944C101.921 320.871 105.733 319.289 108.545 316.477C111.357 313.665 112.939 309.853 112.944 305.876V274.164C112.939 270.187 111.357 266.375 108.545 263.563C105.733 260.751 101.921 259.169 97.944 259.164H55C51.0234 259.169 47.2111 260.751 44.3992 263.563C41.5873 266.375 40.0053 270.187 40 274.164V305.876C40.0053 309.853 41.5873 313.665 44.3992 316.477C47.2111 319.289 51.0234 320.871 55 320.876V320.876ZM54 274.164C54 273.899 54.1054 273.644 54.2929 273.457C54.4804 273.269 54.7348 273.164 55 273.164H97.944C98.2092 273.164 98.4636 273.269 98.6511 273.457C98.8386 273.644 98.944 273.899 98.944 274.164V305.876C98.9429 306.141 98.8372 306.395 98.6499 306.582C98.4626 306.769 98.2089 306.875 97.944 306.876H55C54.7351 306.875 54.4814 306.769 54.2941 306.582C54.1067 306.395 54.0011 306.141 54 305.876V274.164Z" fill="#004B93"/>
<path d="M174.684 320.876H217.628C221.605 320.871 225.417 319.289 228.229 316.477C231.041 313.665 232.623 309.853 232.628 305.876V274.164C232.623 270.187 231.041 266.375 228.229 263.563C225.417 260.751 221.605 259.169 217.628 259.164H174.684C170.707 259.169 166.895 260.751 164.083 263.563C161.271 266.375 159.689 270.187 159.684 274.164V305.876C159.689 309.853 161.271 313.665 164.083 316.477C166.895 319.289 170.707 320.871 174.684 320.876ZM173.684 274.164C173.685 273.899 173.791 273.645 173.978 273.458C174.165 273.271 174.419 273.165 174.684 273.164H217.628C217.893 273.164 218.148 273.269 218.335 273.457C218.523 273.644 218.628 273.899 218.628 274.164V305.876C218.627 306.141 218.521 306.395 218.334 306.582C218.147 306.769 217.893 306.875 217.628 306.876H174.684C174.419 306.875 174.165 306.769 173.978 306.582C173.791 306.395 173.685 306.141 173.684 305.876V274.164Z" fill="#004B93"/>
<path d="M294.372 320.876H337.316C341.293 320.871 345.105 319.289 347.917 316.477C350.729 313.665 352.311 309.853 352.316 305.876V274.164C352.311 270.187 350.729 266.375 347.917 263.563C345.105 260.751 341.293 259.169 337.316 259.164H294.372C290.395 259.169 286.583 260.751 283.771 263.563C280.959 266.375 279.377 270.187 279.372 274.164V305.876C279.377 309.853 280.959 313.665 283.771 316.477C286.583 319.289 290.395 320.871 294.372 320.876ZM293.372 274.164C293.372 273.899 293.477 273.644 293.665 273.457C293.852 273.269 294.107 273.164 294.372 273.164H337.316C337.581 273.164 337.836 273.269 338.023 273.457C338.211 273.644 338.316 273.899 338.316 274.164V305.876C338.315 306.141 338.209 306.395 338.022 306.582C337.835 306.769 337.581 306.875 337.316 306.876H294.372C294.107 306.875 293.853 306.769 293.666 306.582C293.479 306.395 293.373 306.141 293.372 305.876V274.164Z" fill="#004B93"/>
<path d="M414.056 320.876H457C460.977 320.871 464.789 319.289 467.601 316.477C470.413 313.665 471.995 309.853 472 305.876V274.164C471.995 270.187 470.413 266.375 467.601 263.563C464.789 260.751 460.977 259.169 457 259.164H414.056C410.079 259.169 406.267 260.751 403.455 263.563C400.643 266.375 399.061 270.187 399.056 274.164V305.876C399.061 309.853 400.643 313.665 403.455 316.477C406.267 319.289 410.079 320.871 414.056 320.876ZM413.056 274.164C413.056 273.899 413.161 273.644 413.349 273.457C413.536 273.269 413.791 273.164 414.056 273.164H457C457.265 273.164 457.52 273.269 457.707 273.457C457.895 273.644 458 273.899 458 274.164V305.876C457.999 306.141 457.893 306.395 457.706 306.582C457.519 306.769 457.265 306.875 457 306.876H414.056C413.791 306.875 413.537 306.769 413.35 306.582C413.163 306.395 413.057 306.141 413.056 305.876V274.164Z" fill="#004B93"/>
<path d="M55 403.504H97.944C101.921 403.499 105.733 401.917 108.545 399.105C111.357 396.293 112.939 392.481 112.944 388.504V356.8C112.939 352.823 111.357 349.011 108.545 346.199C105.733 343.387 101.921 341.805 97.944 341.8H55C51.0234 341.805 47.2111 343.387 44.3992 346.199C41.5873 349.011 40.0053 352.823 40 356.8V388.512C40.0074 392.487 41.5904 396.297 44.4021 399.108C47.2137 401.918 51.0248 403.499 55 403.504V403.504ZM54 356.8C54 356.535 54.1054 356.28 54.2929 356.093C54.4804 355.905 54.7348 355.8 55 355.8H97.944C98.2092 355.8 98.4636 355.905 98.6511 356.093C98.8386 356.28 98.944 356.535 98.944 356.8V388.512C98.944 388.777 98.8386 389.032 98.6511 389.219C98.4636 389.407 98.2092 389.512 97.944 389.512H55C54.7348 389.512 54.4804 389.407 54.2929 389.219C54.1054 389.032 54 388.777 54 388.512V356.8Z" fill="#004B93"/>
<path d="M174.684 403.504H217.628C221.605 403.499 225.417 401.917 228.229 399.105C231.041 396.293 232.623 392.481 232.628 388.504V356.8C232.623 352.823 231.041 349.011 228.229 346.199C225.417 343.387 221.605 341.805 217.628 341.8H174.684C170.707 341.805 166.895 343.387 164.083 346.199C161.271 349.011 159.689 352.823 159.684 356.8V388.512C159.691 392.487 161.274 396.297 164.086 399.108C166.898 401.918 170.709 403.499 174.684 403.504ZM173.684 356.8C173.685 356.535 173.791 356.281 173.978 356.094C174.165 355.907 174.419 355.801 174.684 355.8H217.628C217.893 355.8 218.148 355.905 218.335 356.093C218.523 356.28 218.628 356.535 218.628 356.8V388.512C218.628 388.777 218.523 389.032 218.335 389.219C218.148 389.407 217.893 389.512 217.628 389.512H174.684C174.419 389.511 174.165 389.405 173.978 389.218C173.791 389.031 173.685 388.777 173.684 388.512V356.8Z" fill="#004B93"/>
<path d="M347.264 345.62C345.789 344.493 343.926 343.998 342.086 344.244C340.246 344.49 338.579 345.457 337.452 346.932L308.252 385.108L291.852 364.4C291.281 363.68 290.574 363.079 289.771 362.632C288.969 362.185 288.086 361.901 287.173 361.795C286.26 361.689 285.335 361.765 284.451 362.016C283.568 362.268 282.742 362.691 282.022 363.262C281.302 363.833 280.701 364.54 280.254 365.343C279.807 366.145 279.523 367.029 279.417 367.941C279.311 368.854 279.387 369.779 279.638 370.663C279.89 371.546 280.313 372.372 280.884 373.092L302.884 400.852C303.539 401.679 304.373 402.347 305.322 402.806C306.272 403.265 307.313 403.504 308.368 403.504H308.428C309.493 403.494 310.542 403.241 311.495 402.765C312.448 402.289 313.28 401.602 313.928 400.756L348.568 355.432C349.127 354.702 349.537 353.87 349.774 352.981C350.011 352.093 350.071 351.167 349.949 350.256C349.828 349.345 349.529 348.466 349.068 347.671C348.607 346.875 347.994 346.178 347.264 345.62Z" fill="#004B93"/>
<path d="M466.948 345.62C465.473 344.493 463.61 343.998 461.77 344.244C459.93 344.49 458.263 345.457 457.136 346.932L427.96 385.108L411.56 364.4C410.989 363.68 410.282 363.079 409.479 362.632C408.677 362.185 407.793 361.901 406.881 361.795C405.968 361.689 405.043 361.765 404.159 362.016C403.276 362.268 402.45 362.691 401.73 363.262C401.01 363.833 400.409 364.54 399.962 365.343C399.515 366.145 399.231 367.029 399.125 367.941C399.019 368.854 399.095 369.779 399.346 370.663C399.598 371.546 400.021 372.372 400.592 373.092L422.592 400.852C423.248 401.679 424.082 402.347 425.032 402.806C425.983 403.266 427.025 403.504 428.08 403.504H428.14C429.205 403.494 430.254 403.241 431.207 402.765C432.16 402.289 432.992 401.602 433.64 400.756L468.276 355.432C468.833 354.701 469.241 353.867 469.476 352.978C469.711 352.089 469.768 351.162 469.645 350.251C469.521 349.34 469.22 348.462 468.757 347.667C468.294 346.873 467.68 346.177 466.948 345.62V345.62Z" fill="#004B93"/>
</svg>
