<svg width="40" height="40" viewBox="0 0 40 40" fill="none" xmlns="http://www.w3.org/2000/svg">
<rect x="0.5" y="0.5" width="39" height="39" rx="19.5" stroke="white"/>
<path d="M32.9249 14.3463C32.864 13.0158 32.6527 12.1071 32.3437 11.3121C32.0299 10.4781 31.5378 9.72255 30.9019 9.09808C30.2776 8.46217 29.5219 7.96989 28.6879 7.65594C27.8927 7.34714 26.9842 7.13599 25.6537 7.07553C24.3206 7.0145 23.8947 7 20.5 7C17.1053 7 16.6794 7.0145 15.3463 7.07515C14.0158 7.13599 13.1073 7.34733 12.3121 7.65632C11.4781 7.97008 10.7225 8.46217 10.0981 9.09808C9.46217 9.72236 8.96989 10.4779 8.65594 11.3119C8.34714 12.1071 8.13599 13.0158 8.07553 14.3462C8.0145 15.6794 8 16.1051 8 19.4998C8 22.8947 8.0145 23.3206 8.07553 24.6537C8.13618 25.984 8.34752 26.8927 8.65651 27.6879C8.97027 28.5218 9.46236 29.2775 10.0983 29.9017C10.7225 30.5376 11.4782 31.0297 12.3123 31.3435C13.1073 31.6527 14.016 31.8638 15.3465 31.9247C16.6798 31.9855 17.1055 31.9998 20.5002 31.9998C23.8949 31.9998 24.3208 31.9855 25.6538 31.9247C26.9844 31.8638 27.8929 31.6527 28.6881 31.3435C30.3671 30.6942 31.6944 29.3669 32.3437 27.6879C32.6529 26.8927 32.864 25.984 32.9249 24.6537C32.9855 23.3204 33 22.8947 33 19.5C33 16.1051 32.9855 15.6794 32.9249 14.3463ZM30.6748 24.5512C30.6192 25.77 30.4155 26.4319 30.2445 26.8723C29.8239 27.9625 28.9623 28.8241 27.8721 29.2446C27.4317 29.4157 26.7698 29.6194 25.551 29.6749C24.2333 29.7352 23.8379 29.7478 20.5 29.7478C17.1619 29.7478 16.7667 29.7352 15.4488 29.6749C14.2302 29.6194 13.5683 29.4157 13.1277 29.2446C12.5849 29.0442 12.0937 28.7247 11.6905 28.3095C11.2753 27.9063 10.9558 27.4153 10.7554 26.8723C10.5843 26.4319 10.3806 25.77 10.3251 24.5512C10.265 23.2333 10.2522 22.8379 10.2522 19.5002C10.2522 16.1623 10.265 15.7671 10.3251 14.449C10.3808 13.2302 10.5843 12.5683 10.7554 12.1279C10.9558 11.5849 11.2755 11.0937 11.6905 10.6905C12.0937 10.2753 12.5849 9.95582 13.1279 9.75555C13.5683 9.58427 14.2302 9.38075 15.449 9.32506C16.7669 9.26498 17.1623 9.2522 20.5 9.2522H20.4998C23.8375 9.2522 24.2329 9.26498 25.551 9.32525C26.7698 9.38075 27.4315 9.58446 27.8721 9.75555C28.4149 9.95601 28.9061 10.2755 29.3093 10.6905C29.7245 11.0937 30.044 11.5849 30.2443 12.1279C30.4155 12.5683 30.6192 13.2302 30.6748 14.449C30.7348 15.7669 30.7476 16.1623 30.7476 19.5C30.7476 22.8379 30.735 23.2331 30.6748 24.5512Z" fill="url(#paint0_linear)"/>
<path d="M20.4998 13.081C16.9548 13.081 14.081 15.955 14.081 19.5C14.081 23.045 16.9548 25.9188 20.4998 25.9188C24.045 25.9188 26.9188 23.045 26.9188 19.5C26.9188 15.955 24.045 13.081 20.4998 13.081ZM20.4998 23.6666C18.1988 23.6664 16.3332 21.801 16.3334 19.4998C16.3334 17.1988 18.1988 15.3332 20.5 15.3332C22.8012 15.3334 24.6666 17.1988 24.6666 19.4998C24.6666 21.801 22.801 23.6666 20.4998 23.6666Z" fill="url(#paint1_linear)"/>
<path d="M28.6724 12.8275C28.6724 13.6559 28.0009 14.3275 27.1725 14.3275C26.3439 14.3275 25.6724 13.6559 25.6724 12.8275C25.6724 11.999 26.3439 11.3274 27.1725 11.3274C28.0009 11.3274 28.6724 11.999 28.6724 12.8275Z" fill="url(#paint2_linear)"/>
<defs>
<linearGradient id="paint0_linear" x1="10.098" y1="29.9018" x2="30.902" y2="9.09776" gradientUnits="userSpaceOnUse">
<stop stop-color="white"/>
<stop offset="0.5" stop-color="white"/>
<stop offset="1" stop-color="white"/>
</linearGradient>
<linearGradient id="paint1_linear" x1="15.9611" y1="24.0387" x2="25.0388" y2="14.9611" gradientUnits="userSpaceOnUse">
<stop stop-color="white"/>
<stop offset="0.5" stop-color="white"/>
<stop offset="1" stop-color="white"/>
</linearGradient>
<linearGradient id="paint2_linear" x1="26.1118" y1="13.8881" x2="28.2331" y2="11.7668" gradientUnits="userSpaceOnUse">
<stop stop-color="white"/>
<stop offset="1" stop-color="white"/>
</linearGradient>
</defs>
</svg>
