<svg width="512" height="512" viewBox="0 0 512 512" fill="none" xmlns="http://www.w3.org/2000/svg">
<path d="M315.108 148.084C315.106 136.394 311.638 124.967 305.143 115.248C298.647 105.528 289.415 97.9536 278.614 93.481C267.813 89.0085 255.929 87.8391 244.464 90.1207C232.998 92.4023 222.467 98.0324 214.202 106.299C205.936 114.566 200.307 125.098 198.027 136.564C195.747 148.029 196.918 159.913 201.392 170.714C205.866 181.514 213.442 190.745 223.162 197.239C232.882 203.734 244.31 207.2 256 207.2C271.672 207.181 286.696 200.946 297.777 189.864C308.858 178.781 315.091 163.756 315.108 148.084V148.084ZM210.892 148.084C210.894 139.163 213.54 130.442 218.498 123.026C223.455 115.609 230.501 109.828 238.743 106.415C246.986 103.002 256.055 102.11 264.805 103.852C273.555 105.593 281.591 109.89 287.899 116.199C294.207 122.507 298.502 130.545 300.242 139.295C301.982 148.045 301.088 157.114 297.674 165.356C294.259 173.598 288.478 180.642 281.06 185.598C273.642 190.555 264.921 193.2 256 193.2C244.039 193.186 232.573 188.428 224.116 179.97C215.66 171.512 210.904 160.045 210.892 148.084V148.084Z" fill="#004B93"/>
<path d="M493.312 484.276L436.248 334.676C435.742 333.352 434.846 332.212 433.678 331.408C432.51 330.603 431.126 330.173 429.708 330.172H321.708C322.368 329.096 323.024 328.052 323.684 326.972C365.24 258.172 386.152 197.988 385.852 148.116C385.858 113.676 372.182 80.6444 347.834 56.2875C323.485 31.9307 290.458 18.2438 256.018 18.238C221.578 18.2322 188.546 31.9078 164.189 56.2564C139.833 80.605 126.146 113.632 126.14 148.072C125.84 197.988 146.752 258.18 188.308 326.972C188.968 328.064 189.624 329.108 190.284 330.172H82.284C80.8661 330.173 79.4818 330.603 78.314 331.408C77.1463 332.212 76.2501 333.352 75.744 334.676L18.688 484.276C18.2815 485.336 18.1391 486.479 18.2732 487.606C18.4073 488.733 18.8139 489.811 19.4578 490.746C20.1017 491.681 20.9635 492.445 21.9689 492.972C22.9742 493.499 24.0928 493.774 25.228 493.772H486.772C487.907 493.774 489.026 493.499 490.031 492.972C491.036 492.445 491.898 491.681 492.542 490.746C493.186 489.811 493.593 488.733 493.727 487.606C493.861 486.479 493.719 485.336 493.312 484.276V484.276ZM140.144 148.084C140.147 132.87 143.146 117.805 148.971 103.749C154.795 89.6941 163.332 76.9237 174.092 66.1673C184.852 55.4109 197.625 46.8792 211.682 41.0594C225.74 35.2395 240.806 32.2454 256.02 32.248C271.234 32.2506 286.299 35.2499 300.355 41.0747C314.41 46.8994 327.18 55.4355 337.937 66.1956C348.693 76.9557 357.225 89.729 363.045 103.786C368.865 117.844 371.859 132.91 371.856 148.124C372.456 247.556 279.496 370.192 256 399.6C232.504 370.204 139.54 247.6 140.144 148.084V148.084ZM250.668 415.2C251.325 415.973 252.142 416.593 253.063 417.019C253.984 417.444 254.986 417.665 256 417.665C257.014 417.665 258.016 417.444 258.937 417.019C259.858 416.593 260.675 415.973 261.332 415.2C279.917 392.559 297.148 368.839 312.932 344.164H424.88L433.84 367.664L215.076 445.468L137.1 344.152H199.06C214.847 368.832 232.079 392.556 250.668 415.2V415.2ZM214.832 460.4H214.872L345.38 414L396 479.772H160.4L214.832 460.4ZM87.112 344.152H119.432L201.2 450.4L118.628 479.768H35.388L87.112 344.152ZM413.684 479.772L359.248 409.044L438.848 380.736L476.62 479.772H413.684Z" fill="#004B93"/>
</svg>
