<svg width="154" height="62" viewBox="0 0 154 62" fill="none" xmlns="http://www.w3.org/2000/svg">
<path d="M96.5236 38.9938C88.5623 42.8954 82.7782 50.9424 83.3061 56.8391C51.9007 47.4398 22.6725 50.9645 1.47171 61.6274C0.240127 62.2481 -0.903486 62.1372 1.05385 60.9623C22.4966 48.1714 63.7986 36.8435 96.5236 38.9938Z" fill="#FAFAFA"/>
<path d="M153.199 27.0007L152.077 32.3432C152.077 32.3432 151.747 34.7374 150.076 35.6241C148.404 36.5108 145.655 36.4887 145.655 36.4887H115.987L117.747 28.1313C114.822 34.6265 107.146 37.7301 93.5989 37.7301C87.0231 37.7301 80.1834 37.1537 76.4447 34.2719L76.9065 36.4887H62.2375L61.6217 32.4319H47.2166L44.8854 36.4887H30.1943L49.5258 5.96321C49.5258 5.96321 51.4172 2.81535 52.9127 2.06163C54.6281 1.19708 57.729 1.24141 57.729 1.24141H69.4511L74.6633 25.848H90.454C90.256 27.0229 90.5199 27.8209 91.3996 28.3751C92.3233 28.8628 93.7968 29.1067 95.9521 29.1067C100.263 29.1067 101.692 27.9318 102.044 26.247C102.264 25.2051 101.846 24.1632 100.043 23.875L84.7799 21.503C78.2481 20.4611 76.2907 16.5152 77.3244 11.5939C79.2378 2.46066 88.6286 0 99.9987 0C115.569 0 121.112 4.1011 120.034 11.5496H103.979C104.287 10.1086 103.627 9.22192 102.462 8.73422C101.362 8.20219 99.8228 8.00268 98.3053 8.00268C94.1927 8.00268 92.5652 9.04458 92.2354 10.5298C92.0374 11.5274 92.3233 12.1481 93.6649 12.3476L109.653 14.8083C115.284 15.6728 118.736 18.0892 118.978 22.3676L123.443 1.24141H137.232L131.8 27.0007H153.199ZM67.6257 18.6212C67.6257 18.6212 63.0732 16.4265 57.5751 16.7591C49.2179 17.2468 46.3149 22.5228 46.3149 22.5228C46.3149 22.5228 49.8557 20.0178 56.3435 20.3281C60.83 20.5498 63.4471 22.2346 63.4471 22.2346C63.4471 22.2346 64.0409 20.3281 65.0965 19.5744C66.1962 18.7764 67.6257 18.6212 67.6257 18.6212Z" fill="#FAFAFA"/>
<path d="M102.638 39.7251H104.199L105.365 47.1957H103.715L103.495 45.5331H100.394L99.2726 47.1957H97.5352L102.638 39.7251ZM103.275 44.0922L102.945 41.6537L101.34 44.0922H103.275Z" fill="#FAFAFA"/>
<path d="M108.311 39.7916H109.917L107.937 47.1957H106.332L108.311 39.7916Z" fill="#FAFAFA"/>
<path d="M111.764 39.7916H114.448C115.547 39.7916 116.273 40.0354 116.779 40.5231C117.153 40.9 117.351 41.4098 117.351 42.0084C117.351 43.3385 116.537 44.2917 114.975 44.6464L116.229 47.1735H114.404L113.26 44.8015H112.05L111.413 47.1735H109.807L111.764 39.7916ZM113.876 43.3828C114.887 43.3828 115.657 42.9616 115.657 42.1636C115.657 41.8975 115.591 41.7202 115.415 41.565C115.217 41.3655 114.865 41.2547 114.338 41.2547H112.974L112.402 43.3828H113.876Z" fill="#FAFAFA"/>
<path d="M119.396 39.7916H121.001L119.418 45.7104H123.09L122.695 47.1957H117.416L119.396 39.7916Z" fill="#FAFAFA"/>
<path d="M126.037 39.7916H127.643L125.664 47.1957H124.058L126.037 39.7916Z" fill="#FAFAFA"/>
<path d="M129.491 39.7916H130.986L133.12 44.4912L134.373 39.7916H135.979L133.999 47.1957H132.636L130.414 42.3409L129.117 47.1957H127.511L129.491 39.7916Z" fill="#FAFAFA"/>
<path d="M137.738 39.7916H143.236L142.84 41.2325H138.947L138.551 42.7399H141.96L141.564 44.1587H138.156L137.738 45.7326H141.674L141.278 47.1735H135.736L137.738 39.7916Z" fill="#FAFAFA"/>
<path d="M142.51 45.9319L143.72 44.89C144.292 45.5329 144.929 45.8654 145.787 45.8654C146.447 45.8654 146.909 45.5551 146.909 45.0896C146.909 44.7349 146.645 44.5132 145.655 44.1142C144.709 43.7151 143.852 43.2053 143.852 42.119C143.852 40.6116 145.193 39.6805 146.777 39.6805C148.03 39.6805 148.91 40.1239 149.526 40.7889L148.404 41.9195C147.854 41.4097 147.349 41.1215 146.645 41.1215C145.963 41.1215 145.567 41.4983 145.567 41.8752C145.567 42.2742 145.853 42.4294 146.865 42.8506C147.876 43.2718 148.624 43.7816 148.624 44.8457C148.624 46.3975 147.261 47.3064 145.699 47.3064C144.314 47.3064 143.214 46.8408 142.51 45.9319Z" fill="#FAFAFA"/>
<path d="M93.9062 50.0114H99.4923L99.0965 51.4966H95.1158L94.698 53.0706H98.1948L97.7989 54.5558H94.3021L93.5324 57.4155H91.9049L93.9062 50.0114Z" fill="#FAFAFA"/>
<path d="M100.878 50.0114H103.561C104.661 50.0114 105.386 50.2552 105.892 50.7429C106.266 51.1198 106.464 51.6296 106.464 52.2282C106.464 53.5582 105.65 54.5115 104.089 54.8662L105.342 57.3933H103.517L102.373 55.0213H101.164L100.526 57.3933H98.8986L100.878 50.0114ZM102.967 53.6026C103.979 53.6026 104.749 53.1814 104.749 52.3833C104.749 52.1395 104.683 51.94 104.507 51.7848C104.309 51.5853 103.957 51.4744 103.429 51.4744H102.066L101.494 53.6026H102.967Z" fill="#FAFAFA"/>
<path d="M110.84 49.9446H112.402L113.568 57.4153H111.918L111.698 55.7527H108.597L107.476 57.4153H105.738L110.84 49.9446ZM111.478 54.3118L111.148 51.8733L109.543 54.3118H111.478Z" fill="#FAFAFA"/>
<path d="M116.427 50.0114H117.922L120.056 54.711L121.309 50.0114H122.915L120.935 57.4155H119.55L117.329 52.5607L116.031 57.4155H114.426L116.427 50.0114Z" fill="#FAFAFA"/>
<path d="M123.289 54.3118C123.289 51.962 125.29 49.8782 127.753 49.8782C129.161 49.8782 130.107 50.4767 130.7 51.4521L129.359 52.3832C128.919 51.7625 128.435 51.3634 127.555 51.3634C126.214 51.3634 124.96 52.6492 124.96 54.2231C124.96 55.2872 125.708 56.0187 126.764 56.0187C127.467 56.0187 127.929 55.7306 128.479 55.2872L129.535 56.3956C128.831 57.0606 127.973 57.5262 126.764 57.5262C124.74 57.5262 123.289 56.2848 123.289 54.3118Z" fill="#FAFAFA"/>
<path d="M132.305 50.0114H137.803L137.407 51.4523H133.515L133.119 52.9597H136.528L136.132 54.3785H132.723L132.305 55.9524H136.242L135.846 57.3933H130.304L132.305 50.0114Z" fill="#FAFAFA"/>
</svg>
