<svg width="512" height="512" viewBox="0 0 512 512" fill="none" xmlns="http://www.w3.org/2000/svg">
<path d="M256 233.5C254.596 233.5 253.224 233.636 251.891 233.883L183.245 114.986C181.175 111.398 176.586 110.17 173 112.24C169.413 114.311 168.184 118.898 170.255 122.485L238.907 241.393C235.54 245.327 233.5 250.428 233.5 255.999C233.5 265.776 239.771 274.113 248.5 277.209V444.5C248.5 448.643 251.857 452 256 452C260.143 452 263.5 448.643 263.5 444.5V277.21C272.229 274.114 278.5 265.777 278.5 256C278.5 243.594 268.406 233.5 256 233.5ZM256 263.5C251.864 263.5 248.5 260.136 248.5 256C248.5 251.864 251.864 248.5 256 248.5C260.136 248.5 263.5 251.864 263.5 256C263.5 260.136 260.136 263.5 256 263.5Z" fill="#004B93"/>
<path d="M437.02 74.98C388.668 26.629 324.38 0 256 0C187.62 0 123.332 26.629 74.98 74.98C26.628 123.331 0 187.62 0 256C0 324.38 26.629 388.668 74.98 437.02C123.331 485.372 187.62 512 256 512C324.38 512 388.668 485.371 437.02 437.02C485.372 388.669 512 324.38 512 256C512 187.62 485.371 123.332 437.02 74.98ZM256 497C123.112 497 15 388.888 15 256C15 123.112 123.112 15 256 15C388.888 15 497 123.112 497 256C497 388.888 388.888 497 256 497Z" fill="#004B93"/>
<path d="M256 75C260.142 75 263.5 71.6421 263.5 67.5C263.5 63.3579 260.142 60 256 60C251.858 60 248.5 63.3579 248.5 67.5C248.5 71.6421 251.858 75 256 75Z" fill="#004B93"/>
<path d="M161.75 100.25C165.892 100.25 169.25 96.8921 169.25 92.75C169.25 88.6079 165.892 85.25 161.75 85.25C157.608 85.25 154.25 88.6079 154.25 92.75C154.25 96.8921 157.608 100.25 161.75 100.25Z" fill="#004B93"/>
<path d="M92.75 169.25C96.8921 169.25 100.25 165.892 100.25 161.75C100.25 157.608 96.8921 154.25 92.75 154.25C88.6079 154.25 85.25 157.608 85.25 161.75C85.25 165.892 88.6079 169.25 92.75 169.25Z" fill="#004B93"/>
<path d="M67.5 263.5C71.6421 263.5 75 260.142 75 256C75 251.858 71.6421 248.5 67.5 248.5C63.3579 248.5 60 251.858 60 256C60 260.142 63.3579 263.5 67.5 263.5Z" fill="#004B93"/>
<path d="M92.75 357.75C96.8921 357.75 100.25 354.392 100.25 350.25C100.25 346.108 96.8921 342.75 92.75 342.75C88.6079 342.75 85.25 346.108 85.25 350.25C85.25 354.392 88.6079 357.75 92.75 357.75Z" fill="#004B93"/>
<path d="M161.75 426.75C165.892 426.75 169.25 423.392 169.25 419.25C169.25 415.108 165.892 411.75 161.75 411.75C157.608 411.75 154.25 415.108 154.25 419.25C154.25 423.392 157.608 426.75 161.75 426.75Z" fill="#004B93"/>
<path d="M350.25 426.75C354.392 426.75 357.75 423.392 357.75 419.25C357.75 415.108 354.392 411.75 350.25 411.75C346.108 411.75 342.75 415.108 342.75 419.25C342.75 423.392 346.108 426.75 350.25 426.75Z" fill="#004B93"/>
<path d="M419.25 357.75C423.392 357.75 426.75 354.392 426.75 350.25C426.75 346.108 423.392 342.75 419.25 342.75C415.108 342.75 411.75 346.108 411.75 350.25C411.75 354.392 415.108 357.75 419.25 357.75Z" fill="#004B93"/>
<path d="M444.5 263.5C448.642 263.5 452 260.142 452 256C452 251.858 448.642 248.5 444.5 248.5C440.358 248.5 437 251.858 437 256C437 260.142 440.358 263.5 444.5 263.5Z" fill="#004B93"/>
<path d="M419.25 169.25C423.392 169.25 426.75 165.892 426.75 161.75C426.75 157.608 423.392 154.25 419.25 154.25C415.108 154.25 411.75 157.608 411.75 161.75C411.75 165.892 415.108 169.25 419.25 169.25Z" fill="#004B93"/>
<path d="M350.25 100.25C354.392 100.25 357.75 96.8921 357.75 92.75C357.75 88.6079 354.392 85.25 350.25 85.25C346.108 85.25 342.75 88.6079 342.75 92.75C342.75 96.8921 346.108 100.25 350.25 100.25Z" fill="#004B93"/>
<path d="M415.806 96.194C373.12 53.508 316.366 30 256 30C201.389 30 148.665 49.748 107.542 85.604C104.42 88.327 104.096 93.064 106.817 96.186C109.54 99.309 114.278 99.632 117.399 96.91C155.791 63.436 205.013 45 256 45C372.346 45 467 139.654 467 256C467 372.346 372.346 467 256 467C139.654 467 45 372.346 45 256C45 205.013 63.436 155.791 96.91 117.399C99.633 114.277 99.308 109.54 96.186 106.817C93.066 104.095 88.328 104.418 85.604 107.542C49.748 148.665 30 201.389 30 256C30 316.366 53.508 373.12 96.194 415.806C138.88 458.492 195.634 482 256 482C316.366 482 373.12 458.492 415.806 415.806C458.492 373.12 482 316.366 482 256C482 195.634 458.492 138.88 415.806 96.194Z" fill="#004B93"/>
</svg>
