<?xml version="1.0" encoding="utf-8"?>
<!-- Generator: Adobe Illustrator 23.1.0, SVG Export Plug-In . SVG Version: 6.00 Build 0)  -->
<svg version="1.1" id="Calque_1" xmlns="http://www.w3.org/2000/svg" xmlns:xlink="http://www.w3.org/1999/xlink" x="0px" y="0px"
	 viewBox="0 0 34.7 29.8" style="enable-background:new 0 0 34.7 29.8;" xml:space="preserve">
<style type="text/css">
	.st0{fill:url(#SVGID_1_);stroke:#816907;stroke-width:1.5;stroke-linecap:square;stroke-linejoin:round;stroke-miterlimit:3.0801;}
	.st1{filter:url(#a);}
	.st2{opacity:0.75;fill-rule:evenodd;clip-rule:evenodd;fill:#FFFFFF;}
	.st3{opacity:0.61;fill-rule:evenodd;clip-rule:evenodd;fill:#FFFFFF;enable-background:new    ;}
	.st4{fill-rule:evenodd;clip-rule:evenodd;fill:#504000;}
</style>
<filter  height="1.72" id="a" width="1.72" x="-.36" y="-.36">
	<feGaussianBlur  stdDeviation="2.46429"></feGaussianBlur>
</filter>
<g transform="matrix(.77002 0 0 .77002 -77.154 -544.62)">
	
		<linearGradient id="SVGID_1_" gradientUnits="userSpaceOnUse" x1="354.84" y1="-356.6472" x2="379.98" y2="-379.1772" gradientTransform="matrix(0.77 0 0 -0.77 -160.6261 451.4609)">
		<stop  offset="0" style="stop-color:#FFE680"/>
		<stop  offset="0.3965" style="stop-color:#FFCC00"/>
		<stop  offset="1" style="stop-color:#FFE784"/>
	</linearGradient>
	<path class="st0" d="M122.7,711l18.8,31.8h-37.2L122.7,711L122.7,711z"/>
	<g class="st1">
		<path class="st2" d="M119.9,731.8c-2.5-3.2-2.7-4.9-1.5-8.4c2.5-4.9,3.4-6.5,4.1-7.6C123.8,720,124,731.2,119.9,731.8L119.9,731.8
			z"/>
	</g>
	<path class="st3" d="M120.8,719.6l0,13.6l3.8,0l0-13.6L120.8,719.6z"/>
	<path class="st4" d="M121.2,720l0,13.4l3.8,0l0-13.4L121.2,720L121.2,720z"/>
	<path class="st3" d="M124.9,738.1c0,1.2-1,2.1-2.1,2.1c-1.2,0-2.1-1-2.1-2.1c0,0,0,0,0,0c0-1.2,1-2.1,2.1-2.1
		C123.9,735.9,124.9,736.9,124.9,738.1C124.9,738.1,124.9,738.1,124.9,738.1z"/>
	<path class="st4" d="M125.3,738.4c0,1.2-1,2.1-2.1,2.1c-1.2,0-2.1-1-2.1-2.1c0,0,0,0,0,0c0-1.2,1-2.1,2.1-2.1
		C124.3,736.2,125.3,737.2,125.3,738.4C125.3,738.4,125.3,738.4,125.3,738.4z"/>
</g>
</svg>
